<?xml version="1.0" encoding="UTF-8"?>
<!DOCTYPE svg PUBLIC "-//W3C//DTD SVG 1.1//EN" "http://www.w3.org/Graphics/SVG/1.1/DTD/svg11.dtd">
<!-- Creator: CorelDRAW 2018 (64 Bit) -->
<svg xmlns="http://www.w3.org/2000/svg" xml:space="preserve" width="210mm" height="297mm" version="1.1" style="shape-rendering:geometricPrecision; text-rendering:geometricPrecision; image-rendering:optimizeQuality; fill-rule:evenodd; clip-rule:evenodd"
viewBox="0 0 21000 29700"
 xmlns:xlink="http://www.w3.org/1999/xlink">
 <defs>
  <style type="text/css">
   <![CDATA[
    .fil0 {fill:black}
   ]]>
  </style>
 </defs>
 <g id="Camada_x0020_1">
  <metadata id="CorelCorpID_0Corel-Layer"/>
  <path class="fil0" d="M9983.34 16826.18l-22.87 1145.07 -512.68 -147.76c-511.3,-134.02 -1072.3,-314 -1559.11,-435.72l-1299.75 -362.6c-235.74,-85.76 -288.85,-475.87 -296.05,-717.9 -1.22,-40.92 21.79,-254.09 32.27,-294.8 103.3,-401.19 351.03,-254.84 612.88,-167.59 338.43,112.78 683.81,221.82 1015.89,332.48 139.63,46.52 1928.76,646.58 2029.42,648.82zm4303.65 -350.94l18.47 461.76c-693.42,161.55 -1390.34,342.92 -2072.43,513.46l-2083.46 520.9c0,-372.22 36.94,-754.49 36.94,-1126.71 190.5,-4.24 711.05,-166.24 868.12,-166.24 218.82,0 41.54,57.51 404.17,-57.59 61.56,-19.53 123.38,-42.24 193.42,-65.17 100.33,-32.85 2630.33,-560.65 2745.59,-560.65 -60.48,114.32 -110.82,304.46 -110.82,480.24zm-3084.59 -277.06c0,-370.76 -36.94,-753.07 -36.94,-1126.71l2939.3 -957.99c327.26,-109.78 587.36,-262.03 702.52,49.82 92.47,250.4 59.31,700.24 -55.3,911.39 -103.19,190.11 -202.32,179.56 -421.63,243.31l-3127.95 880.18zm-4432.95 -1976.36c90.75,2.02 409.92,80.42 524.84,103.16l1043.83 212.17c173.29,35.88 353.93,74.73 535.44,111.03l1578.79 323.69c127.2,29.32 443.25,77.22 528.4,118.07 0,391.46 18.47,718.64 18.47,1108.24 -52.06,-24.98 -174.9,-48.33 -247.52,-66.48 -98.79,-24.69 -169.74,-42.3 -265.9,-66.57l-3642.47 -901.31c63.2,-271.27 44.79,-676.42 -73.88,-942zm-184.71 -1477.65c0,-750.19 372.43,-531.58 685.76,-427.17l2756.51 900.67c90.23,29.47 176.6,44.51 251.86,80.62 0,373.64 -36.95,755.95 -36.95,1126.71 -48.53,-23.29 -196.34,-56.48 -258.59,-73.88l-2856.53 -800.65c-220.48,-64.1 -321.01,-52.92 -427.7,-237.25 -82.28,-142.18 -114.36,-351.95 -114.36,-569.05zm7979.31 277.06c0,96.37 18.37,289.71 36.94,369.41 -340.98,79.44 -700.6,170.49 -1038.08,254.87 -348.9,87.23 -695.12,173.77 -1034.35,258.59 -348.91,87.23 -695.13,173.77 -1034.36,258.59 -353.6,88.4 -698.98,180.74 -1049.1,262.31l36.94 -1126.71c79.6,-1.77 182.86,-31.03 266.29,-47.72 98.78,-19.75 162.84,-32.73 261.7,-52.3l3386.45 -695.55c81.06,-16.78 187.12,-52.05 278.39,-54.08 -13.21,56.73 -24.36,60.85 -43.9,122.34 -34.48,108.54 -66.92,338.89 -66.92,450.25zm-8293.31 -332.47c0,193 35.3,425.63 81.23,583.71 79.85,274.84 169.49,310.09 251.24,432.17 -92.06,2.05 -186,49.05 -262.51,69.97 -88.4,24.17 -199.25,31.77 -199.25,133.21 0,245.19 535.64,87.37 535.64,794.24l-18.47 387.88c-77.34,6.44 -298.66,87.38 -380.16,118.55 -112.13,42.88 -273.59,79.45 -284.78,213.92 60.65,32.09 174.4,66.88 258.59,73.88 -212.52,317.38 -258.59,291.46 -258.59,849.65 0,361.75 136.51,877.71 509.85,1004.74 385.84,131.29 755.7,244.06 1140.97,373.62l2301.89 745.77 2618.97 -631.87c212.72,-50.12 447.62,-114.17 654.93,-157.78l1310.68 -314.73c150.98,-35.58 533.34,-115.4 642.61,-188.57 -44.77,-84.62 -29.45,-71.75 -122.58,-117.54 -68.4,-33.62 -105.02,-51.43 -178.05,-80.53 -93.51,-37.27 -278.1,-107.22 -382.78,-115.93 0,-219.89 -88.6,-777.06 240.63,-959.96 79.29,-44.04 349.83,-103.08 279.99,-260.18 -33.08,-74.41 -115.62,-79.94 -243.56,-109.74 295.62,-256.96 406.35,-618.57 406.35,-1034.36 0,-134.1 -23.98,-299.9 -57.52,-404.25 -51.63,-160.65 -79.99,-190.46 -164.13,-316.1 86.27,-1.93 180.42,-37.59 260.12,-53.89 95.16,-19.46 191.52,-29.63 238.59,-93.88 -28.75,-107.66 -178.8,-150.98 -287.66,-192.57 -128.82,-49.23 -239.02,-89.22 -377.28,-121.43l-18.47 -387.88c0,-700.6 535.65,-563.78 535.65,-775.77 0,-143.55 -215.29,-152.41 -482.55,-237.81l-1122.09 -337.09c-185.93,-59.41 -1620.75,-501.15 -1698.17,-494.68l-1297.41 181.96c-857.53,118.8 -1702.21,233.04 -2563.2,355.16l-1280.03 179.15c-203.48,41.68 -342.06,148.53 -435.63,303.2 -97.23,160.73 -153.06,393.04 -153.06,585.76z"/>
 </g>
</svg>
