<?xml version="1.0" encoding="UTF-8"?>
<!DOCTYPE svg PUBLIC "-//W3C//DTD SVG 1.1//EN" "http://www.w3.org/Graphics/SVG/1.1/DTD/svg11.dtd">
<!-- Creator: CorelDRAW 2018 (64 Bit) -->
<svg xmlns="http://www.w3.org/2000/svg" xml:space="preserve" width="2480px" height="3508px" version="1.1" style="shape-rendering:geometricPrecision; text-rendering:geometricPrecision; image-rendering:optimizeQuality; fill-rule:evenodd; clip-rule:evenodd"
viewBox="0 0 2480 3507.43"
 xmlns:xlink="http://www.w3.org/1999/xlink">
 <defs>
  <style type="text/css">
   <![CDATA[
    .fil1 {fill:none}
    .fil0 {fill:#FEFEFE}
    .fil2 {fill:#1C1C1C}
   ]]>
  </style>
    <clipPath id="id0">
     <path d="M463.17 1603.68l1476.48 0c38.97,0 70.86,31.89 70.86,70.86l0 929.8c0,38.97 -31.89,70.85 -70.86,70.85l-1476.48 0c-38.97,0 -70.86,-31.88 -70.86,-70.85l0 -929.8c0,-38.97 31.89,-70.86 70.86,-70.86z"/>
    </clipPath>
 </defs>
 <g id="Camada_x0020_1">
  <metadata id="CorelCorpID_0Corel-Layer"/>
  <g id="_1915776845280">
   <g style="clip-path:url(#id0)">
    <polygon class="fil0" points="92.35,1303.72 2310.47,1303.72 2310.47,2975.15 92.35,2975.15 "/>
    <g id="Camada_x0020_1_0">
     <metadata id="CorelCorpID_1Corel-Layer"/>
     <g>
     </g>
    </g>
   </g>
   <path id="1" class="fil1" d="M463.17 1603.68l1476.48 0c38.97,0 70.86,31.89 70.86,70.86l0 929.8c0,38.97 -31.89,70.85 -70.86,70.85l-1476.48 0c-38.97,0 -70.86,-31.88 -70.86,-70.85l0 -929.8c0,-38.97 31.89,-70.86 70.86,-70.86z"/>
   <g>
    <path class="fil2" d="M977.74 2418.91l0 -559.11c0,-16.75 10.92,-30.1 27.24,-30.1l392.81 0c16.32,0 27.24,13.35 27.24,30.1l0 559.11c0,16.76 -10.92,30.11 -27.24,30.11l-392.81 0c-16.32,0 -27.24,-13.35 -27.24,-30.11zm-15.77 -561.98l0 8.61c-11.91,0.26 -35.49,7.79 -44.75,14.02 -36.16,24.31 -15.81,64.85 -5.42,106.4l44.15 170.89c4.97,19.88 6.07,16.94 6.03,36.98l-0.01 215.05c-0.03,59.43 31.39,55.91 73.12,55.91 2.45,5.1 3.16,9.83 6.16,15.34 7.72,14.14 24.63,24.8 42.58,24.8 10.66,0 136.81,-33.66 156.05,-38.93 9.43,-2.58 123.39,-1.21 139.28,-1.21 23.4,0 32.4,1.08 46.13,-9.78 11.02,-8.73 15.51,-20.79 15.51,-40.4 10.98,-5.27 32.03,-5.76 44.89,-15.32 35.68,-26.53 16.28,-62.52 5,-107.68 -5.55,-22.21 -12.05,-45.16 -17.78,-68.24 -5.89,-23.68 -11.85,-45.83 -17.48,-68.53 -2.95,-11.87 -5.97,-22.41 -8.89,-34.12 -5.24,-20.93 -5.77,-14.79 -5.74,-37.27l0 -213.61c0.02,-24.39 -3.44,-45.89 -31.27,-54.75 -8.47,-2.69 -30.26,-1.16 -41.84,-1.16 -2.45,-5.11 -3.16,-9.84 -6.17,-15.34 -2.27,-4.17 -6.57,-9.94 -10.16,-12.78 -25.36,-20.09 -45.21,-10.38 -76.87,-2l-86.51 22.44c-21.91,6.4 -25.63,7.68 -48.24,7.68 -36.79,-0.01 -73.59,0 -110.39,0 -22.92,0 -32.46,-2.64 -47.63,6.84 -10.52,6.58 -19.75,19.61 -19.75,36.16z"/>
    <path class="fil2" d="M1085.26 2160.86c-6.79,0 -9.51,-4.45 -13.3,-8.2 -6.8,-6.73 -6.12,-5.24 -5.33,-14.74 13.39,-3.2 9.16,-0.61 18.63,5.74 2.8,-4.18 21.78,-25.81 28.68,-25.81 4.67,0 5.52,4.07 7.17,7.17 -3.21,6.07 -31.4,35.84 -35.85,35.84zm-65.94 -22.94c0,44 33.45,74.47 73.29,75.39 77.54,1.79 104.33,-107.26 31.38,-141.35 -46.47,-21.72 -104.67,12.64 -104.67,65.96z"/>
    <path class="fil2" d="M1083.83 2337.19c-17.57,-9.29 -23.51,-25.8 -10.03,-25.8 3.64,0 6.6,4.87 10.03,7.17 19.57,-13.11 23.78,-35.6 37.28,-20.07 -1.99,8.53 -30.98,35.37 -37.28,38.7zm-64.51 -24.37c0,42.49 32.41,75.98 74.55,75.98 63.16,0 98.33,-79.03 51.97,-125.09 -6.5,-6.46 -10.92,-10.36 -19.45,-14.95 -18.85,-10.15 -46.61,-10.26 -65.54,-0.5 -21.86,11.27 -41.53,35.7 -41.53,64.56z"/>
    <path class="fil2" d="M1083.83 1985.96c-1.41,0 -17.2,-9.96 -17.2,-20.07 0,-4.24 4.25,-6.08 7.99,-5.22 3.68,0.84 6.09,4.56 9.21,6.65 11.35,-7.59 20.63,-23.51 27.94,-24.93 5.23,-1.02 8.95,2.36 8.6,7.47 -0.37,5.45 -30.83,36.1 -36.54,36.1zm-64.51 -24.37c0,30.48 15.91,56.03 40.6,68.35 48.32,24.12 107.06,-9.48 107.06,-68.35 0,-38.07 -34.09,-71.68 -74.55,-71.68 -38.35,0 -73.11,33.63 -73.11,71.68z"/>
    <path class="fil2" d="M1195.65 2288.45c0,5.46 1.37,10.04 10.04,10.04l167.73 0c14.06,0 9.08,-12.28 8.6,-14.34 -3.68,-1.77 -8.73,-2.87 -14.33,-2.87l-156.27 0c-6.56,0 -15.77,0.86 -15.77,7.17z"/>
    <path class="fil2" d="M1195.65 2113.55c0,3.29 -0.23,8.6 5.74,8.6 27.38,0 165.11,2.18 180.63,-1.43 0.67,-2.89 5.38,-14.34 -8.6,-14.34l-170.6 0c-3.34,0 -7.17,3.83 -7.17,7.17z"/>
    <path class="fil2" d="M1197.09 1932.92c-1.12,4.8 -3.13,14.33 5.73,14.33l173.47 0c9.38,0 9.38,-15.77 0,-15.77 -21.86,0 -170.63,-1.89 -179.2,1.44z"/>
    <path class="fil2" d="M1195.65 1987.39c0,7.85 3.12,10.04 15.77,10.04l94.62 0c20.28,0 16.98,-17.21 4.3,-17.21l-104.65 0c-4.83,0 -10.04,2.54 -10.04,7.17z"/>
    <path class="fil2" d="M1195.65 2338.63c0,3.87 0.69,3.95 1.44,7.17 14.71,3.42 94.86,1.43 116.12,1.43 9.38,0 9.38,-15.77 0,-15.77l-110.39 0c-3.34,0 -7.17,3.82 -7.17,7.17z"/>
    <path class="fil2" d="M1195.65 2162.29c0,4.46 1.48,10.04 7.17,10.04l107.52 0c14.04,0 11.48,-15.77 2.87,-15.77l-111.82 0c-3.36,0 -5.74,2.38 -5.74,5.73z"/>
   </g>
  </g>
 </g>
</svg>
